<?xml version="1.0" standalone="no"?>
<!DOCTYPE svg PUBLIC "-//W3C//DTD SVG 20010904//EN"
 "http://www.w3.org/TR/2001/REC-SVG-20010904/DTD/svg10.dtd">
<svg version="1.0" xmlns="http://www.w3.org/2000/svg"
 width="855.000000pt" height="855.000000pt" viewBox="0 0 855.000000 855.000000"
 preserveAspectRatio="xMidYMid meet">
<metadata>
Created by potrace 1.11, written by Peter Selinger 2001-2013
</metadata>
<g transform="translate(0.000000,855.000000) scale(0.100000,-0.100000)"
fill="#000000" stroke="none">
<path d="M5212 7802 c-15 -21 -33 -41 -40 -45 -7 -5 -10 -12 -8 -16 3 -4 -11
-24 -30 -45 -19 -20 -34 -41 -34 -47 0 -5 -4 -9 -10 -9 -15 0 -49 -37 -42 -46
4 -4 2 -4 -4 -1 -7 4 -17 1 -23 -7 -10 -12 -24 -19 -128 -62 -24 -10 -43 -21
-43 -26 0 -4 -5 -8 -10 -8 -6 0 -22 -11 -36 -25 -14 -14 -22 -25 -19 -25 3 0
-3 -9 -12 -19 -20 -22 -58 -73 -59 -81 -2 -19 -38 -77 -48 -77 -15 -1 -95 -12
-128 -18 -16 -3 -38 -7 -50 -9 -52 -10 -188 -58 -188 -66 0 -6 -3 -9 -7 -8
-11 2 -47 -14 -53 -23 -3 -4 -12 -9 -19 -11 -14 -3 -49 -30 -98 -75 -13 -13
-29 -23 -35 -23 -6 0 -8 -3 -5 -6 3 -4 -7 -19 -23 -34 -54 -50 -249 -388 -233
-404 3 -3 1 -6 -5 -6 -7 0 -12 -8 -12 -18 0 -10 -7 -27 -15 -39 -9 -12 -15
-26 -14 -30 1 -4 -3 -19 -8 -33 -22 -53 -57 -125 -63 -130 -3 -3 -16 -22 -29
-42 -12 -21 -26 -38 -29 -38 -12 -1 -82 -68 -82 -79 0 -6 -4 -11 -10 -11 -5 0
-21 -38 -35 -84 l-27 -84 26 -65 c21 -50 25 -75 21 -113 -3 -27 -7 -116 -10
-199 -2 -82 -7 -161 -10 -175 -9 -38 -15 -79 -20 -144 -3 -32 -7 -68 -11 -78
-3 -11 -8 -38 -10 -61 -3 -23 -6 -51 -8 -62 -2 -11 -4 -25 -5 -30 -2 -16 -56
-33 -73 -24 -21 12 -52 1 -67 -23 -9 -15 -10 -18 0 -13 8 6 10 4 5 -4 -5 -7
-14 -10 -22 -7 -8 3 -14 1 -14 -4 0 -5 -8 -11 -18 -14 -11 -4 -19 -17 -20 -38
-2 -18 -11 -45 -21 -61 -15 -24 -17 -37 -9 -70 5 -23 16 -49 24 -58 23 -25 16
-37 -18 -35 -18 2 -43 -1 -55 -5 -12 -4 -39 -10 -60 -13 -21 -3 -53 -9 -70
-15 -18 -5 -33 -8 -33 -6 0 2 -16 -3 -35 -11 -19 -8 -35 -11 -35 -8 0 4 -7 1
-15 -6 -8 -7 -15 -9 -15 -5 0 4 -6 2 -13 -4 -8 -6 -22 -12 -33 -14 -10 -1 -23
-5 -29 -8 -12 -8 -144 -52 -165 -56 -68 -12 -130 -10 -178 6 -47 16 -132 20
-182 9 -58 -13 -146 -67 -179 -110 -54 -69 -96 -175 -100 -252 -2 -38 -8 -55
-27 -72 -13 -13 -24 -26 -24 -30 0 -3 -13 -19 -30 -34 -16 -15 -30 -25 -30
-22 0 3 -7 -3 -16 -14 -8 -10 -12 -12 -8 -4 7 13 5 13 -8 2 -9 -7 -27 -11 -41
-8 -14 2 -28 1 -32 -2 -4 -4 -10 -7 -13 -7 -17 0 -82 -48 -76 -56 3 -5 1 -9
-5 -9 -14 0 -6 -77 10 -96 10 -12 8 -17 -7 -28 -10 -8 -22 -12 -26 -10 -5 3
-8 0 -8 -6 0 -6 -3 -9 -8 -7 -9 5 -42 -30 -35 -37 4 -3 2 -6 -3 -6 -5 0 -10
-16 -11 -35 -1 -19 3 -35 8 -35 6 0 8 -4 4 -9 -5 -10 31 -50 47 -52 18 -3 23
-5 33 -10 13 -7 48 -4 72 6 10 5 20 9 23 9 6 1 66 24 95 36 41 18 72 23 155
26 125 5 165 11 191 25 29 15 109 20 109 6 0 -6 3 -8 6 -4 3 3 17 2 30 -3 14
-6 24 -6 24 0 0 21 40 13 108 -22 39 -21 72 -35 72 -31 0 4 5 2 12 -5 7 -7 22
-12 34 -12 13 0 25 -4 29 -9 3 -5 18 -12 34 -16 25 -5 29 -11 27 -35 -1 -15
-7 -34 -12 -42 -24 -29 -25 -51 -4 -73 19 -20 19 -25 8 -51 -7 -16 -19 -35
-26 -43 -7 -7 -22 -31 -33 -52 -17 -35 -18 -45 -8 -79 7 -22 15 -40 18 -40 3
0 12 -14 19 -30 8 -17 18 -28 22 -25 5 3 7 -5 4 -17 -8 -41 -13 -77 -29 -193
-3 -22 -10 -64 -16 -94 -7 -34 -7 -57 -1 -63 13 -13 78 -27 90 -19 9 6 18 46
28 119 2 20 6 44 9 52 2 8 7 35 10 60 9 74 16 100 26 100 5 0 7 -21 4 -47 -4
-37 -15 -255 -17 -338 0 -5 3 -26 7 -46 4 -25 2 -40 -7 -50 -7 -8 -13 -30 -12
-49 0 -19 -3 -43 -8 -53 -6 -12 -5 -23 2 -33 13 -15 6 -64 -9 -64 -5 0 -7 -18
-4 -40 4 -27 2 -40 -6 -40 -7 0 -9 -5 -6 -10 3 -5 2 -10 -2 -10 -9 0 -12 -19
-13 -77 0 -18 -4 -33 -8 -33 -10 0 -9 -72 2 -88 9 -15 95 -8 126 9 18 11 70
31 88 35 11 2 13 -2 12 -21 -1 -3 6 -13 15 -21 8 -9 13 -20 10 -25 -4 -5 -1
-9 5 -9 6 0 8 -4 5 -10 -3 -5 -1 -10 5 -10 7 0 10 -7 6 -15 -3 -8 -1 -15 4
-15 6 0 10 -9 10 -20 0 -12 7 -34 15 -51 9 -16 13 -34 10 -39 -3 -6 -1 -10 4
-10 6 0 11 -11 11 -24 0 -14 5 -28 10 -31 6 -4 10 -12 9 -18 -3 -13 13 -74 37
-145 8 -24 12 -48 9 -53 -4 -5 -2 -9 3 -9 9 0 24 -38 27 -65 0 -5 7 -21 14
-33 7 -13 10 -26 7 -29 -3 -3 6 -26 20 -50 19 -35 22 -48 13 -59 -6 -8 -16
-14 -21 -14 -5 0 -17 -7 -26 -16 -17 -17 -21 -86 -8 -134 4 -14 9 -63 12 -110
2 -47 7 -98 9 -115 3 -16 8 -52 11 -78 2 -27 5 -52 6 -55 1 -4 -6 -22 -15 -39
-10 -18 -17 -35 -17 -38 0 -3 0 -8 -1 -12 -1 -5 0 -24 1 -43 1 -33 -11 -56
-52 -100 -9 -10 -14 -21 -11 -24 4 -3 2 -6 -4 -6 -30 0 -63 -139 -43 -180 6
-12 18 -103 20 -146 0 -12 15 -17 86 -31 50 -10 372 -10 534 0 246 15 344 66
324 170 -10 49 -7 66 24 150 14 37 21 94 26 192 4 77 9 154 11 170 24 214 20
371 -9 404 -9 10 -31 21 -48 25 -24 5 -29 10 -23 23 4 10 9 29 11 43 3 14 8
34 11 45 3 11 7 38 9 60 1 22 10 56 18 77 9 20 17 51 18 68 2 29 25 53 45 48
4 -1 26 4 48 10 45 13 61 15 52 6 -3 -4 3 -29 14 -58 12 -28 25 -71 30 -96 4
-25 11 -56 14 -70 8 -32 24 -116 30 -159 3 -19 8 -38 11 -42 5 -9 -24 -19 -63
-22 -30 -2 -44 -40 -39 -102 2 -27 5 -50 6 -50 1 0 3 -13 5 -30 1 -16 5 -40 9
-52 4 -12 9 -30 11 -40 2 -10 10 -46 18 -81 9 -34 16 -65 16 -67 1 -3 1 -6 2
-7 14 -48 13 -78 -6 -114 -8 -16 -15 -39 -15 -51 0 -12 -5 -34 -12 -50 -6 -15
-12 -34 -14 -40 -1 -7 -13 -30 -26 -50 -12 -21 -22 -41 -20 -45 1 -5 -1 -8 -6
-8 -12 0 -32 -54 -36 -100 -2 -29 1 -48 13 -60 18 -19 22 -32 24 -80 2 -38 23
-54 87 -65 19 -3 62 -11 95 -17 33 -6 148 -10 256 -9 205 1 291 15 395 60 65
29 105 100 85 152 -6 18 -5 43 6 85 8 32 14 70 14 84 -1 14 -1 57 0 95 1 39 1
97 0 130 -1 33 -2 143 -4 245 -3 190 -8 226 -36 247 -14 10 -14 16 2 61 10 28
20 59 22 69 2 10 4 18 5 18 1 0 4 11 5 25 9 63 12 78 21 91 5 8 9 17 10 22 1
4 2 8 3 10 2 1 4 12 7 25 2 12 10 33 18 45 8 12 33 69 55 127 31 81 50 115 81
145 22 21 40 36 40 31 0 -4 -7 -14 -15 -22 -8 -9 -15 -25 -15 -37 0 -30 48
-99 62 -91 6 4 9 3 6 -2 -3 -5 8 -22 25 -39 17 -16 24 -21 17 -10 -15 21 -16
23 58 -45 12 -11 27 -20 32 -20 6 0 10 -4 10 -8 0 -5 18 -17 40 -27 22 -10 40
-21 40 -25 0 -15 161 -82 184 -76 21 5 92 97 98 128 2 7 10 20 19 28 9 8 24
31 34 50 15 30 59 95 75 110 14 13 50 70 50 78 0 5 9 17 20 27 11 10 20 22 20
27 0 5 12 25 26 44 19 24 25 41 20 59 -5 20 -3 25 13 25 11 0 27 10 36 23 8
12 41 58 72 102 59 85 63 97 51 160 -13 63 -30 92 -83 147 -77 79 -171 116
-312 122 -48 2 -92 4 -96 5 -4 1 -7 39 -5 86 2 81 4 88 39 138 57 80 70 160
37 219 -7 13 -13 25 -13 28 -1 11 -41 67 -80 115 -27 32 -41 57 -38 70 8 39 4
60 -17 77 -11 9 -20 27 -20 41 0 28 -28 57 -57 57 -29 0 -88 26 -131 58 -35
25 -37 31 -39 85 -3 82 15 122 64 137 21 7 43 16 49 21 6 5 19 7 30 5 22 -4
152 12 244 30 14 2 36 7 50 9 59 11 71 14 83 22 6 4 21 9 32 10 11 2 24 8 29
13 6 6 18 10 28 10 10 0 18 5 18 10 0 6 5 10 11 10 6 0 23 9 39 20 15 11 30
17 34 13 3 -3 6 -1 6 5 0 6 8 13 18 17 23 7 121 95 107 95 -6 0 -3 6 5 13 9 7
29 30 45 52 50 66 59 75 76 75 10 0 19 -5 21 -12 3 -7 27 11 56 41 63 65 79
111 57 164 -11 26 -13 59 -10 124 3 48 7 131 9 184 3 65 9 105 20 121 18 27
45 102 51 138 12 72 36 165 51 193 31 60 72 192 68 221 -4 32 -30 66 -51 66
-7 0 -13 4 -13 8 0 5 -13 7 -30 4 -16 -2 -30 -8 -30 -12 0 -5 -9 -11 -20 -15
-11 -3 -32 -19 -47 -36 -15 -16 -31 -29 -34 -29 -4 0 -6 42 -5 94 1 92 0 96
-28 125 -16 17 -33 28 -37 25 -4 -2 -10 0 -14 5 -3 5 -15 7 -28 4 -12 -3 -30
-6 -39 -6 -9 -1 -16 -4 -16 -7 2 -13 -15 -39 -23 -34 -5 3 -6 -2 -3 -10 3 -9
1 -16 -5 -16 -6 0 -8 -7 -5 -15 3 -8 2 -20 -2 -27 -4 -7 -9 -20 -9 -30 -2 -23
-55 -99 -65 -93 -5 3 -11 23 -15 46 -4 22 -13 45 -21 52 -8 7 -24 21 -35 32
-19 18 -94 31 -83 13 5 -8 -11 -12 -31 -8 -5 1 -7 -2 -3 -6 4 -4 3 -12 -2 -19
-11 -14 -18 -47 -19 -92 -1 -27 -4 -31 -18 -26 -10 4 -26 16 -36 28 -10 11
-15 14 -11 6 5 -9 3 -12 -4 -7 -7 4 -12 12 -12 17 0 5 -22 33 -50 62 -27 29
-50 55 -50 58 0 3 -11 19 -24 34 -46 53 -51 70 -27 94 13 13 19 30 17 48 -5
44 -28 113 -38 113 -4 0 -8 5 -8 11 0 7 -14 25 -31 42 -17 16 -32 34 -33 41
-1 6 -4 16 -8 21 -8 13 -18 108 -23 210 -4 77 -12 160 -19 201 -2 10 -7 44
-12 74 -4 30 -8 57 -9 60 -1 3 -5 25 -9 50 -14 74 -43 156 -86 242 -23 44 -39
86 -37 92 6 16 -20 46 -68 77 -22 15 -55 41 -74 58 l-34 31 18 62 c10 35 22
68 26 73 10 14 26 106 21 128 -2 9 -8 17 -13 17 -5 0 -9 5 -9 11 0 24 -100 96
-114 82 -3 -4 -6 -1 -6 5 0 7 -8 12 -19 12 -40 0 -44 24 -16 111 14 45 24 84
21 86 -2 3 2 22 9 43 24 69 27 108 7 114 -17 4 -75 17 -100 22 -7 1 -25 -14
-40 -34z m-1612 -2012 c0 -24 0 -24 18 -80 13 -41 23 -108 26 -167 1 -13 4
-23 9 -23 4 0 7 -7 7 -15 0 -8 19 -51 43 -96 54 -105 153 -207 266 -274 45
-27 78 -51 74 -55 -14 -12 -157 -62 -178 -62 -22 0 -63 7 -115 19 -19 5 -39 9
-45 8 -14 -1 -57 -25 -73 -41 -18 -19 -36 -8 -55 31 -15 31 -31 41 -59 36 -7
-1 -11 11 -10 29 1 13 13 87 17 100 2 8 6 33 10 55 3 22 8 54 10 70 11 66 16
114 20 200 5 85 15 246 17 273 2 20 18 14 18 -8z m2284 -190 c50 -69 167 -191
177 -184 5 3 9 -1 9 -9 0 -8 13 -21 29 -29 l29 -14 -4 -89 c-6 -107 -6 -223 0
-283 3 -32 0 -45 -13 -52 -9 -5 -12 -10 -7 -10 4 0 -3 -15 -18 -34 -14 -19
-26 -39 -26 -45 0 -6 -4 -11 -10 -11 -5 0 -9 -3 -9 -7 3 -15 -23 -73 -33 -73
-5 0 -6 -4 -3 -10 3 -5 -2 -10 -12 -10 -11 0 -25 -6 -32 -12 -11 -11 -12 -10
-6 1 4 8 -12 0 -37 -17 -44 -30 -79 -72 -85 -102 -4 -19 18 -90 27 -90 4 0 12
-11 18 -25 9 -20 8 -26 -5 -34 -9 -5 -29 -5 -44 -1 -15 5 -30 6 -33 3 -3 -3
-11 -1 -18 5 -7 6 -15 10 -18 10 -3 1 -17 5 -32 11 -31 12 -39 48 -13 57 21 9
19 27 -9 59 -14 16 -22 33 -19 37 13 23 -8 57 -39 63 -18 4 -42 15 -53 25 -25
23 -64 38 -87 33 -9 -3 -27 -20 -38 -39 -12 -19 -26 -34 -32 -34 -6 0 -38 30
-72 66 -34 37 -79 78 -101 92 -39 26 -44 28 -65 31 -25 3 -6 21 28 26 156 27
350 132 435 238 97 119 152 266 156 417 2 62 10 88 28 90 0 0 17 -22 37 -50z
m-2839 -1662 c-15 -46 -29 -99 -32 -118 -3 -20 -17 -47 -34 -64 -19 -19 -27
-35 -24 -47 9 -29 -10 -30 -23 -1 -16 35 -54 62 -95 67 -136 14 -162 18 -165
20 -2 2 14 22 36 45 22 22 54 63 71 89 23 36 40 51 64 56 17 4 39 9 47 11 8 3
29 6 45 8 17 2 37 7 45 10 8 3 28 8 44 10 16 3 31 8 35 11 15 16 10 -21 -14
-97z m2637 -1081 c7 -7 28 -19 46 -26 21 -9 35 -23 39 -40 12 -46 8 -135 -9
-176 -19 -47 -15 -139 7 -175 3 -6 -4 -14 -17 -19 -13 -5 -63 -64 -113 -134
-50 -69 -91 -124 -93 -122 -1 1 17 51 42 111 24 60 46 118 48 129 1 11 6 22 9
25 15 12 25 271 15 403 -3 39 4 45 26 24z m158 -66 c0 -55 -9 -75 -26 -60 -8
6 -11 15 -8 21 3 5 2 14 -3 21 -13 17 -10 36 7 47 25 16 30 12 30 -29z m21
-192 c-22 -18 -41 -18 -41 2 0 5 6 9 14 9 8 0 17 8 20 17 5 13 9 14 19 4 9
-10 7 -16 -12 -32z m-2920 -289 c14 -45 14 -45 -25 -54 -27 -7 -28 -6 -23 26
3 18 8 42 10 53 3 11 6 21 6 23 3 13 23 -16 32 -48z"/>
</g>
</svg>
